<?xml version="1.0" encoding="iso-8859-1"?>
<!-- Generator: Adobe Illustrator 19.0.0, SVG Export Plug-In . SVG Version: 6.00 Build 0)  -->
<svg xmlns="http://www.w3.org/2000/svg" xmlns:xlink="http://www.w3.org/1999/xlink" version="1.1" id="Layer_1" x="0px" y="0px" viewBox="0 0 290.626 290.626" style="enable-background:new 0 0 290.626 290.626;" xml:space="preserve" width="512px" height="512px">
<g>
	<g>
		<g>
			<path d="M230.447,0h-66.384v9.375h-18.75v32.813h18.75v9.375h26.278c-3.97,10.012-14.456,29.738-36.319,32.859L150,84.998v17.578     l4.106,0.511c0.319,0.042,2.077,0.239,4.917,0.239c10.28,0,34.734-2.667,56.602-25.059v16.866     c-13.533,4.045-23.438,16.598-23.438,31.43V150c0,20.639-12.98,27.628-28.003,35.719c-15.441,8.311-32.934,17.733-32.934,43.969     v28.125c0,18.094,14.723,32.813,32.813,32.813h89.063c18.089,0,32.813-14.719,32.813-32.813v-131.25     c0-16.495-12.253-30.15-28.125-32.438v-9.352c4.331-24.619,28.584-33.103,29.606-33.45l3.206-1.069V20.058L230.447,0z      M164.063,32.813h-9.375V18.75h9.375V32.813z M159.375,93.966v-1.003c26.784-6.061,37.767-31.866,40.969-41.4h15.281V63.98     C194.737,90.919,169.228,93.919,159.375,93.966z M276.563,126.563v131.25c0,12.923-10.514,23.438-23.438,23.438h-89.063     c-12.923,0-23.438-10.514-23.438-23.438v-28.125c0-20.639,12.98-27.628,28.003-35.719c7.936-4.27,16.397-8.855,22.762-15.844H225     v-9.375h-27.323c2.414-5.128,3.886-11.231,3.886-18.75v-4.688H225v-9.375h-23.438v-9.375c0-12.923,10.514-23.438,23.438-23.438     h28.125C266.048,103.125,276.563,113.639,276.563,126.563z M281.25,43.702c-8.053,3.548-28.589,14.925-32.747,39.9l-0.047,10.148     H225V42.188h-51.563V9.375h55.491l52.322,17.442V43.702z" fill="#FFFFFF"/>
			<rect x="248.438" y="262.5" width="9.375" height="9.375" fill="#FFFFFF"/>
			<rect x="229.688" y="262.5" width="9.375" height="9.375" fill="#FFFFFF"/>
			<rect x="210.938" y="262.5" width="9.375" height="9.375" fill="#FFFFFF"/>
			<rect x="159.375" y="262.5" width="9.375" height="9.375" fill="#FFFFFF"/>
			<rect x="56.25" y="23.438" width="65.625" height="9.375" fill="#FFFFFF"/>
			<rect x="18.75" y="23.438" width="9.375" height="9.375" fill="#FFFFFF"/>
			<rect x="37.5" y="23.438" width="9.375" height="9.375" fill="#FFFFFF"/>
			<rect y="23.438" width="9.375" height="9.375" fill="#FFFFFF"/>
			
				<rect x="84.375" y="58.996" transform="matrix(-0.7071 -0.7071 0.7071 -0.7071 105.6363 175.004)" width="9.375" height="13.256" fill="#FFFFFF"/>
			<rect x="93.368" y="2.342" transform="matrix(0.9487 0.3162 -0.3162 0.9487 7.3934 -31.5052)" width="14.822" height="9.375" fill="#FFFFFF"/>
			
				<rect x="70.313" y="73.06" transform="matrix(-0.7071 -0.7071 0.7071 -0.7071 71.6857 189.0681)" width="9.375" height="13.256" fill="#FFFFFF"/>
			
				<rect x="32.812" y="62.728" transform="matrix(-0.4472 -0.8944 0.8944 -0.4472 -6.5228 131.9056)" width="9.375" height="10.481" fill="#FFFFFF"/>
			
				<rect x="98.437" y="44.934" transform="matrix(-0.7071 -0.7071 0.7071 -0.7071 139.5845 160.9426)" width="9.375" height="13.256" fill="#FFFFFF"/>
			
				<rect x="51.563" y="53.354" transform="matrix(-0.4472 -0.8944 0.8944 -0.4472 28.9982 135.1096)" width="9.375" height="10.481" fill="#FFFFFF"/>
			<rect x="69.759" y="44.531" transform="matrix(0.8944 -0.4472 0.4472 0.8944 -14.0933 38.7372)" width="10.481" height="9.375" fill="#FFFFFF"/>
		</g>
	</g>
</g>
<g>
</g>
<g>
</g>
<g>
</g>
<g>
</g>
<g>
</g>
<g>
</g>
<g>
</g>
<g>
</g>
<g>
</g>
<g>
</g>
<g>
</g>
<g>
</g>
<g>
</g>
<g>
</g>
<g>
</g>
</svg>
